# xmcd
#
# Track frame offsets:
#	151
#	16460
#	32122
#	52857
#	72298
#	84996
#	100903
#	119088
#	134192
#	150610
#	170884
#	186869
#	207808
#	224005
#	240164
#	260897
#	275575
#	284724
#	305177
#
# Disc length: 4332 seconds
#
# Revision: 1
# Processed by: cddbd v1.5.2PL0 Copyright (c) Steve Scherf et al.
# Submitted via: audiograbber 1.83.01
#
DISCID=3010ea13
DTITLE=Tom Grant - The Smooth Country Sound Of Tom Grant
DYEAR=1900
DGENRE=
TTITLE0=The Way It큦 Suppose To Be
TTITLE1=Praise To The Father
TTITLE2=For Love
TTITLE3=I Belive It큦 You, Take This Ring
TTITLE4=Evrybody큦 Girl
TTITLE5=Just For A While
TTITLE6=To The Eyes Of The World
TTITLE7=Hey You
TTITLE8=I Know When It Started, Hope It Never Ends
TTITLE9=The Love Keeper
TTITLE10=What Would I Do Without You
TTITLE11=The Shadow Of The Sun
TTITLE12=Elizabeth My Love
TTITLE13=City Lights
TTITLE14=This Shared Dream
TTITLE15=Perfect Peace
TTITLE16=Grandparents Wish
TTITLE17=I큞l Be There
TTITLE18=Two Lonely People
EXTD=
EXTT0=
EXTT1=
EXTT2=
EXTT3=
EXTT4=
EXTT5=
EXTT6=
EXTT7=
EXTT8=
EXTT9=
EXTT10=
EXTT11=
EXTT12=
EXTT13=
EXTT14=
EXTT15=
EXTT16=
EXTT17=
EXTT18=
PLAYORDER=
